:SAMPLES-PER-SECOND 30
:FULLY-SPECIFIED
:DEGREES
84
root  -24.2783 40.3114 4.28104 150.836 -87.7946 -152.732
RightUpLeg  1.91556 -8.21133 -0.160664
RightLeg  13.5503 -0.961038 4.37904
RightFoot  -13.7206 -0.200696 -5.17968
RightToes  -4.65663e-010 0 -3.6325e-017
Spine  3.67862 0.85391 10.2703
Spine1  8.62921 2.00564 -3.22959
HEad  4.10769 -15.9517 8.69016
LeftShoulder1  7.37173 -10.7652 -45.0081
LeftArm  -13.606 22.6297 -29.424
LeftForeArm  27.9976 -31.4126 -5.30907
LeftHand  -0.244104 0.0205437 5.32207
RightShoulder  5.66373 9.16908 38.6222
RightArm  5.22486 0.694062 36.8044
RightForeArm  9.25534 39.0227 8.50677
RightHand  -0.167053 -3.80194 -11.267
LeftUpLeg  -20.8973 4.21738 7.73961
LeftLeg  19.0728 -0.727098 0.0812986
LeftFoot  1.14511 0.653958 -6.04389
LeftToes  -7.27628e-011 -1.6005e-012 -1.37987e-011
85
root  -25.418 40.298 4.51768 169.902 -85.2995 -172.063
RightUpLeg  4.30358 -8.51828 -1.3675
RightLeg  12.8587 2.04126 4.46898
RightFoot  -14.6485 -0.24739 -5.14409
RightToes  -4.65663e-010 0 -3.6325e-017
Spine  3.53951 1.13778 9.95552
Spine1  9.13632 2.42254 -3.9049
HEad  3.91165 -15.7325 9.32486
LeftShoulder1  7.39929 -10.7629 -45.1907
LeftArm  -11.6148 23.9956 -29.8297
LeftForeArm  25.4773 -26.1264 -4.24791
LeftHand  -0.244104 0.0205437 5.32207
RightShoulder  5.72843 9.3015 38.663
RightArm  7.04623 1.61256 37.1577
RightForeArm  9.05776 38.8153 8.45509
RightHand  -0.18474 -3.62335 -11.3312
LeftUpLeg  -19.1978 4.08461 8.7063
LeftLeg  8.53047 -3.4187 -0.346999
LeftFoot  2.90187 0.745028 -6.10069
LeftToes  -7.27628e-011 -1.6005e-012 -1.37987e-011
86
root  -26.6467 40.1865 4.79485 174.599 -82.9134 -177.068
RightUpLeg  6.39521 -8.81152 -2.7072
RightLeg  13.0139 4.97949 4.17013
RightFoot  -16.1683 -0.293224 -4.3955
RightToes  -4.65663e-010 0 -3.6325e-017
Spine  3.22752 1.23543 9.42701
Spine1  9.63816 2.60433 -4.29231
HEad  3.98629 -15.3986 10.1207
LeftShoulder1  7.39915 -10.7522 -45.225
LeftArm  -9.60837 25.4541 -30.4461
LeftForeArm  23.2416 -20.2806 -3.70925
LeftHand  -0.244104 0.0205437 5.32207
RightShoulder  5.84518 9.44423 39.0539
RightArm  9.15494 2.24129 37.1024
RightForeArm  8.16823 37.5689 8.13312
RightHand  -0.208819 -3.38909 -11.4619
LeftUpLeg  -17.9057 4.95436 9.27956
LeftLeg  2.2269 -4.80799 -0.564524
LeftFoot  1.89164 0.790124 -6.91777
LeftToes  -7.27628e-011 -1.6005e-012 -1.37987e-011
87
root  -27.9495 40.0167 5.13384 177.779 -80.7162 179.545
RightUpLeg  8.03093 -8.66753 -4.1008
RightLeg  13.7826 7.34776 3.43743
RightFoot  -17.7368 -0.29013 -3.03675
RightToes  -4.65663e-010 0 -3.6325e-017
Spine  2.67319 1.16866 8.91637
Spine1  10.1235 2.65046 -4.78669
HEad  4.22105 -15.0873 10.8988
LeftShoulder1  7.38769 -10.7507 -45.1569
LeftArm  -10.2123 26.9753 -31.0403
LeftForeArm  24.7463 -14.3783 -4.43029
LeftHand  -0.244104 0.0205437 5.32207
RightShoulder  5.92616 9.49196 39.4903
RightArm  11.165 2.47639 37.05
RightForeArm  7.66731 35.2201 7.48524
RightHand  -0.230131 -3.13738 -11.3274
LeftUpLeg  -17.4521 5.60729 9.33501
LeftLeg  1.53132 -2.70408 -1.15863
LeftFoot  -0.125486 0.714378 -7.24954
LeftToes  -7.27628e-011 -1.6005e-012 -1.37987e-011
88
root  -29.3121 39.8288 5.528 179.971 -78.2685 177.103
RightUpLeg  9.2612 -7.06857 -5.29565
RightLeg  15.1005 8.18004 2.36623
RightFoot  -18.9934 -0.259598 -1.95894
RightToes  -4.65663e-010 0 -3.6325e-017
Spine  2.18978 1.19875 8.5156
Spine1  10.4742 2.82299 -5.31227
HEad  4.48638 -14.9758 11.3501
LeftShoulder1  7.37953 -10.7252 -45.1891
LeftArm  -11.2847 28.5839 -31.756
LeftForeArm  27.3265 -9.35576 -4.85616
LeftHand  -0.244104 0.0205437 5.32207
RightShoulder  5.91218 9.41518 39.6447
RightArm  12.7602 2.0006 37.0422
RightForeArm  7.15673 32.153 6.68929
RightHand  -0.269779 -2.70542 -11.2824
LeftUpLeg  -17.1344 5.80975 8.72312
LeftLeg  4.28088 0.923992 -0.999929
LeftFoot  0.558605 0.70035 -6.76761
LeftToes  -7.27628e-011 -1.6005e-012 -1.37987e-011
89
root  -30.7207 39.6439 5.92457 -178.371 -75.4793 174.954
RightUpLeg  10.0904 -2.31386 -6.07653
RightLeg  17.3439 6.08358 1.36639
RightFoot  -19.9283 -0.147833 -0.221109
RightToes  -4.65663e-010 0 -3.6325e-017
Spine  2.15286 1.38599 7.47957
Spine1  10.4139 2.95593 -5.11196
HEad  4.73701 -14.8898 11.4369
LeftShoulder1  7.37473 -10.6344 -45.4589
LeftArm  -11.2021 30.4805 -32.6529
LeftForeArm  28.2252 -6.08073 -4.70232
LeftHand  -0.244104 0.0205437 5.32207
RightShoulder  5.89215 9.31246 39.8446
RightArm  14.2709 0.924765 36.5366
RightForeArm  5.48731 28.611 5.87556
RightHand  -0.33972 -2.0666 -11.6455
LeftUpLeg  -16.6638 6.19955 7.72122
LeftLeg  8.33385 2.97202 -0.193291
LeftFoot  3.98712 0.8353 -6.37268
LeftToes  -7.27628e-011 -1.6005e-012 -1.37987e-011
90
root  -32.0983 39.5205 6.26026 -176.11 -72.8263 172.054
RightUpLeg  9.97529 4.45199 -6.81614
RightLeg  21.3982 2.00425 0.700785
RightFoot  -19.6277 0.145457 3.95945
RightToes  -4.65663e-010 0 -3.6325e-017
Spine  2.64086 1.47941 4.93286
Spine1  9.85782 2.64721 -3.84667
HEad  4.9104 -14.5773 11.4701
LeftShoulder1  7.3753 -10.5176 -45.8529
LeftArm  -11.2315 32.5759 -33.4655
LeftForeArm  28.3564 -4.78396 -4.61324
LeftHand  -0.244104 0.0205437 5.32207
RightShoulder  5.9668 9.27043 40.5399
RightArm  15.3137 -0.293108 35.4298
RightForeArm  3.26393 24.2579 5.17507
RightHand  -0.422453 -1.38277 -12.1398
LeftUpLeg  -16.1495 8.20378 6.24925
LeftLeg  12.529 2.14109 0.0287876
LeftFoot  6.00385 0.962875 -6.55387
LeftToes  -7.27628e-011 -1.6005e-012 -1.37987e-011
91
root  -33.3801 39.5152 6.53709 -173.274 -70.5246 168.639
RightUpLeg  7.7826 7.93502 -8.40839
RightLeg  28.5152 -0.229734 -0.38788
RightFoot  -16.1519 0.242112 8.69102
RightToes  -4.65663e-010 0 -3.6325e-017
Spine  3.4348 1.3553 1.56788
Spine1  9.06674 1.98942 -2.33333
HEad  4.85549 -14.1326 11.589
LeftShoulder1  7.39873 -10.4844 -46.1152
LeftArm  -11.2564 34.1777 -33.8677
LeftForeArm  28.4366 -5.09659 -4.66835
LeftHand  -0.244104 0.0205437 5.32207
RightShoulder  6.08125 9.26502 41.4018
RightArm  11.8263 -1.52964 34.413
RightForeArm  4.47195 18.7267 5.62974
RightHand  -0.492502 -0.892575 -12.6711
LeftUpLeg  -15.2899 12.1408 4.18268
LeftLeg  15.9188 -0.103215 -0.244971
LeftFoot  4.16684 0.901166 -6.79634
LeftToes  -7.27628e-011 -1.6005e-012 -1.37987e-011
